# xmcd
#
# Track frame offsets:
#	150
#	39282
#	61610
#	78797
#	109222
#	150597
#	190500
#	207820
#	230752
#	264725
#	293872
#
# Disc length: 4238 seconds
#
# Revision: 1
# Processed by: cddbd v1.5.1PL0 Copyright (c) Steve Scherf et al.
# Submitted via: CDex 1.50Beta5
#
DISCID=89108c0b
DTITLE=Karl Bohm/Berlin Phil - Mozart Symphony Nr25,29 and 31
DYEAR=1900
DGENRE=
TTITLE0=第25番ト短調第1楽章 Allegro con brio
TTITLE1=第25番ト短調第2楽章 Andante
TTITLE2=第25番ト短調第3楽章 Menuetto Mrio
TTITLE3=第25番ト短調第4楽章 Allegro
TTITLE4=第29番イ長調第1楽章 Allegro moderato
TTITLE5=第29番イ長調第2楽章
TTITLE6=第29番イ長調第3楽章
TTITLE7=第29番イ長調第4楽章
TTITLE8=第31番ニ長調パリ第1楽章 Allegro assai
TTITLE9=第31番ニ長調パリ第2楽章Andante
TTITLE10=第31番ニ長調パリ第3楽章Allegro
EXTD=
EXTT0=
EXTT1=
EXTT2=
EXTT3=
EXTT4=
EXTT5=
EXTT6=
EXTT7=
EXTT8=
EXTT9=
EXTT10=
PLAYORDER=
